<svg width="72" height="72" viewBox="0 0 72 72" fill="none" xmlns="http://www.w3.org/2000/svg">
<path d="M1.79443 70.2115L6.62751 52.642C3.64586 47.5007 2.07789 41.6662 2.07968 35.6907C2.08865 16.9957 17.3665 1.78613 36.1427 1.78613C45.2545 1.78971 53.8048 5.32146 60.2363 11.7294C66.6661 18.1391 70.2075 26.6567 70.2039 35.7175C70.1967 54.4124 54.9153 69.6238 36.1427 69.6238H36.1283C30.4287 69.622 24.826 68.1982 19.8512 65.4953L1.79443 70.2115Z" fill="white"/>
<path d="M1.79466 71.1049C1.55785 71.1049 1.32822 71.012 1.15779 70.8405C0.933534 70.6136 0.845627 70.2831 0.929946 69.9776L5.66436 52.7636C2.72934 47.5723 1.18111 41.6771 1.1847 35.6926C1.19187 16.5028 16.8734 0.893066 36.1429 0.893066C45.4897 0.896639 54.2714 4.52129 60.8716 11.0989C67.4718 17.6783 71.1047 26.4211 71.1011 35.7176C71.0939 54.9056 55.4106 70.5171 36.1429 70.5171C30.4218 70.5153 24.7617 69.1094 19.7384 66.4494L2.0225 71.0745C1.94715 71.0959 1.8718 71.1049 1.79466 71.1049Z" fill="white"/>
<path d="M36.143 1.78642C45.2548 1.79 53.8051 5.32175 60.2366 11.7297C66.6664 18.1393 70.2078 26.657 70.2042 35.7177C70.197 54.4127 54.9156 69.6241 36.143 69.6241H36.1286C30.4291 69.6223 24.8263 68.1985 19.8515 65.4956L1.79475 70.2118L6.62783 52.6423C3.64618 47.501 2.07821 41.6665 2.08 35.6909C2.08897 16.996 17.3668 1.78642 36.143 1.78642ZM36.143 0C16.3801 0 0.294957 16.0099 0.285987 35.6909C0.284193 41.7058 1.80911 47.6332 4.70106 52.8799L0.0635288 69.742C-0.105109 70.3583 0.0671167 71.0157 0.519209 71.4694C0.860072 71.8124 1.32113 72 1.79475 72C1.94725 72 2.09974 71.9803 2.25044 71.941L19.6291 67.4035C24.7026 70.026 30.3896 71.4105 36.1286 71.4123C55.9059 71.4123 71.991 55.4006 72 35.7195C72.0036 26.1818 68.2774 17.214 61.5086 10.4684C54.7362 3.72112 45.7284 0.00357285 36.143 0Z" fill="#CFD8DC"/>
<path d="M56.1676 15.7777C50.8214 10.4506 43.7153 7.51546 36.1517 7.51367C20.5366 7.51367 7.83677 20.1544 7.82959 35.6927C7.8278 41.018 9.32401 46.2022 12.1586 50.6915L12.8331 51.758L9.97165 62.1568L20.6873 59.3592L21.7225 59.9702C26.0676 62.5391 31.0513 63.8968 36.132 63.8985H36.1428C51.7471 63.8985 64.447 51.256 64.4523 35.7159C64.4541 28.1862 61.5137 21.1048 56.1676 15.7777Z" fill="#40C351"/>
<path fill-rule="evenodd" clip-rule="evenodd" d="M27.1575 19.6756C26.4179 18.0298 25.6387 17.9965 24.9325 17.9673C24.3554 17.9423 23.697 17.9444 23.0387 17.9444C22.3804 17.9444 21.3095 18.1923 20.4033 19.1819C19.497 20.1715 16.9429 22.561 16.9429 27.4235C16.9429 32.286 20.4845 36.986 20.9783 37.6444C21.472 38.3027 27.8158 48.6006 37.8616 52.5631C46.2095 55.8548 47.9095 55.2006 49.722 55.036C51.5345 54.8715 55.57 52.6465 56.3929 50.3381C57.2158 48.0298 57.2158 46.0527 56.97 45.6402C56.722 45.2277 56.0637 44.9819 55.0762 44.486C54.0887 43.9902 49.2283 41.6006 48.322 41.2715C47.4158 40.9423 46.7575 40.7777 46.097 41.7673C45.4387 42.7548 43.545 44.9819 42.9679 45.6402C42.3908 46.3006 41.8137 46.384 40.8262 45.8881C39.8387 45.3923 36.6554 44.3506 32.8783 40.984C29.9408 38.3652 27.9575 35.1298 27.3804 34.1402C26.8033 33.1527 27.3179 32.6173 27.8137 32.1235C28.2575 31.6798 28.8012 30.9694 29.297 30.3923C29.7908 29.8152 29.9554 29.4027 30.2845 28.7444C30.6137 28.084 30.4491 27.5069 30.2012 27.0131C29.9575 26.5173 28.0366 21.6298 27.1575 19.6756Z" fill="white"/>
</svg>
